<?xml version="1.0" encoding="UTF-8"?>
<svg width="63px" height="36px" viewBox="0 0 63 36" version="1.1" xmlns="http://www.w3.org/2000/svg" xmlns:xlink="http://www.w3.org/1999/xlink">
    <title>logo品牌色-灰</title>
    <g id="页面-1" stroke="none" stroke-width="1" fill="none" fill-rule="evenodd">
        <g id="项目列表" transform="translate(-24.000000, -10.000000)" fill="#FFFFFF" fill-rule="nonzero">
            <g id="logo品牌色-灰" transform="translate(24.000000, 10.000000)">
                <path d="M37.4290358,1.38595033 C38.0019352,1.546328 38.5724673,1.71628046 39.13353,1.91376043 C39.4637757,2.03344526 39.4625921,2.14235846 39.2649181,2.45114532 C38.9643045,2.92283144 38.8074749,3.47347313 38.8139373,4.03457562 C38.8139373,5.10336115 38.8731211,4.94896772 39.7087968,4.93460554 C40.3006351,4.92503075 40.8924733,4.86279464 41.4843116,4.82569234 C42.4016609,4.76824363 43.1994589,5.12131387 43.9617466,5.57970677 C44.3084114,5.78752215 44.6435039,6.01446851 44.9655043,6.25951661 C45.3584849,6.55992553 45.3892605,6.91778317 44.9501165,7.24332591 C44.5950135,7.50663253 44.3061965,7.87645866 44.0303998,8.23072576 C43.7546032,8.58499285 43.5569292,8.98354334 43.2894183,9.33900728 C43.0065196,9.72080189 42.9153765,10.1588484 42.855009,10.6100602 C42.8301518,10.7907843 42.7567639,10.8889258 42.5756614,10.9044849 C42.1732113,10.9403903 41.7707613,10.9798863 41.3683113,11.0169886 C40.7243913,11.0756342 40.0781039,11.1270986 39.4353675,11.195319 C39.0412032,11.2372087 38.9062641,11.4287044 38.8743048,11.9014595 C38.8068353,12.8888593 38.7085901,13.8750623 38.6742635,14.8648559 C38.6553247,15.3830912 38.7417331,15.9061139 38.7855291,16.4279398 C38.8092026,16.6912464 38.8601007,16.9533562 38.8707538,17.2178596 C38.8861416,17.6056385 38.7961822,17.7552445 38.4268751,17.8162838 C38.086769,17.8667756 37.7421245,17.8784183 37.3994439,17.8509924 C37.0277694,17.8270554 37.0242184,17.4919379 37.1224636,17.1999069 C37.2364251,16.9049274 37.3104818,16.5957422 37.3426274,16.2807274 C37.3745867,15.5865554 37.3674846,14.8887928 37.3426274,14.1946208 C37.3272396,13.6321021 37.2787089,13.0707803 37.2242691,12.5106553 C37.1996632,12.3141768 37.1548347,12.120834 37.0905043,11.9337744 C36.9958102,11.6297749 36.7354013,11.715948 36.5199722,11.7039795 L36.5140538,11.6321686 C35.9778483,11.7829715 35.4333571,11.9098374 34.9078047,12.0941521 C34.5432324,12.221018 34.3633135,12.2138369 34.1490681,11.8835068 L33.2151473,10.46584 C32.9056159,9.99218724 32.6020029,9.51494398 32.3167368,9.02662987 C31.9782053,8.44615845 31.7095107,7.81182885 31.7248985,7.09970411 C31.7331843,6.82323216 31.8432662,6.64609861 32.1119608,6.58505934 C32.8553096,6.41869743 33.6093116,6.28465042 34.343191,6.08118621 C35.1220502,5.86455667 35.8819705,5.59167526 36.6489929,5.32597493 C36.8857282,5.24458925 36.897565,5.01120383 36.897565,4.79577114 L36.897565,2.24289371 C36.9014649,2.06359242 36.9208722,1.88497993 36.9555652,1.70909937 C37.0029122,1.45536753 37.1828311,1.31892683 37.4290358,1.38595033 Z M25.9319856,5.28647894 C26.3095784,5.35828984 26.3900684,5.57850992 26.2515782,5.94235181 C26.2291333,6.00546638 26.2010014,6.06636258 26.1675372,6.12427275 C25.8396588,6.6532797 25.82072,7.23734167 25.8668834,7.83337212 C25.8905569,8.13617474 26.1983128,8.31211144 26.4291297,8.12061571 C26.8694574,7.76156122 27.2861115,7.38455401 27.7110514,7.01233419 C28.1359913,6.64011437 28.5893394,6.23318594 29.0344018,5.85139134 C29.1207997,5.76847988 29.2366646,5.72438433 29.3556878,5.72911711 C29.474711,5.73384988 29.5867933,5.78700939 29.666485,5.87652515 C29.8593212,6.07251516 30.0422353,6.27823665 30.2145273,6.49290202 C30.3246092,6.62694903 30.303303,6.73227168 30.135221,6.8292164 C29.703179,7.07576715 29.2521983,7.30795572 28.8639524,7.60836464 C28.3904817,7.98297816 27.9667255,8.43179627 27.5216632,8.84829948 C27.507459,8.86146481 27.4956223,8.87582699 27.4826018,8.89018917 C27.3642342,9.01705509 27.1535398,9.14990525 27.1594581,9.27198378 C27.1653765,9.3940623 27.3713362,9.52930616 27.496806,9.65138469 C28.0318277,10.1756042 28.543176,10.7285482 29.1113407,11.2072875 C29.8171388,11.8168075 30.6442743,12.2657941 31.536694,12.5238206 C32.38539,12.7631903 33.216331,13.0779614 34.0472719,13.3795671 C34.3365619,13.4899921 34.6141472,13.6295272 34.8758455,13.7960703 C34.9791234,13.8681813 35.0451155,13.9831966 35.0557643,14.1096446 C35.0557643,14.1898334 34.9113558,14.2903687 34.8107433,14.3382426 C34.3680482,14.5488879 33.8922103,14.5692343 33.4116376,14.5776123 C32.740493,14.5847934 32.0681647,14.635061 31.3993875,14.6206988 C30.9889725,14.6136308 30.5808648,14.5569769 30.1837517,14.4519432 C29.7576281,14.3322584 29.5919134,13.9277237 29.4108109,13.5590944 C29.2119533,13.152166 28.9988915,12.7548123 28.6189313,12.4819309 C28.1253382,12.1228764 27.6447655,11.7470661 27.1393356,11.4047674 C26.8646901,11.2316077 26.5741259,11.085711 26.2717007,10.9691147 C26.0112919,10.8602015 25.8941079,10.9511619 25.8799038,11.2455866 C25.868067,11.4945311 25.8728017,11.7434755 25.8728017,11.99242 L25.8728017,14.2664317 L25.8124342,14.2616443 L25.8124342,17.0742378 C25.818967,17.1602843 25.818967,17.2467106 25.8124342,17.3327571 C25.7627198,17.6511187 25.6017398,17.7588351 25.2939839,17.6403471 C24.8321427,17.4722922 24.379702,17.2789139 23.9386743,17.0610725 C23.30304,16.7319392 22.6792424,16.3764753 22.0684654,16.0006649 C21.8286498,15.8331743 21.6096693,15.6370734 21.4162596,15.4166029 C21.3581665,15.3276555 21.317947,15.2280211 21.2978919,15.1233751 C21.3888945,15.0846742 21.4857761,15.0620059 21.5843417,15.0563516 C22.0388734,15.1126035 22.4898542,15.1915955 22.944386,15.2550284 C23.2036548,15.2950877 23.4648125,15.3214541 23.7267962,15.3340204 C24.0475725,15.3435952 24.2227567,15.1963829 24.2263077,14.8840055 C24.2440628,13.4394096 24.2487975,11.9960105 24.2535322,10.5514146 C24.2535322,10.0343761 24.2464302,9.51733768 24.2334097,8.99551182 C24.2203893,8.47368596 24.2109199,7.98178131 24.1706749,7.47790818 C24.1357479,7.2267582 24.0803204,6.97896246 24.0049602,6.73705908 C23.9965248,6.65799638 23.9498086,6.588331 23.8802904,6.55114594 C23.8107723,6.51396089 23.7275291,6.5141114 23.6581429,6.55154759 C23.4556845,6.63055622 23.2580557,6.72167777 23.0663047,6.824429 C22.8094469,6.95608232 22.5644258,7.1116726 22.304017,7.23375112 C22.1004246,7.32830214 21.8778934,7.3199242 21.7855667,7.07696399 C21.7010165,6.84293716 21.6472899,6.59867824 21.6257703,6.35047708 C21.6257703,6.28824097 21.7547911,6.18291832 21.8435668,6.14581602 C22.424752,5.89926527 23.0059372,5.65151767 23.5977754,5.43608498 C23.9347107,5.300338 24.289016,5.21369761 24.6500639,5.17876259 C25.0800815,5.16323577 25.5104014,5.19939436 25.9319856,5.28647894 Z M51.9764204,2.78386914 C52.1942169,3.08427807 52.3765031,3.39665547 52.3315234,3.77007214 C52.3019299,3.95235795 52.2040018,4.11610168 52.0580941,4.22726819 C51.7704607,4.41517338 51.4295619,4.51810233 51.1348264,4.69882642 C50.9508683,4.79893758 50.8032602,4.95573461 50.7134375,5.14644769 C50.6163761,5.42531334 50.612825,5.7388876 50.5856005,6.03929652 C50.5642943,6.25951661 50.6873967,6.34688653 50.8980911,6.34209914 C51.0306221,6.34072404 51.1630954,6.34832106 51.2946227,6.36483926 C51.886461,6.42707537 52.1942169,6.7597992 52.2297272,7.37617607 C52.2557681,7.82858473 52.171727,7.94467901 51.7385014,8.11223777 C51.4887457,8.20918249 51.242541,8.31929253 51.0010709,8.43897736 C50.726458,8.57541807 50.686213,8.78486652 50.8933564,9.01107085 C51.1004998,9.23727518 51.330133,9.46228266 51.5526642,9.68489644 C51.8284608,9.9589747 51.8414813,10.3120449 51.7527055,10.6423751 C51.6757666,10.9296187 51.3538066,10.8985006 51.1182549,10.958343 C51.052055,10.9631695 50.9855972,10.9631695 50.9193973,10.958343 C50.6187434,10.9882642 50.528784,11.0899963 50.525233,11.392799 C50.505505,13.01014 50.4838043,14.627082 50.4601308,16.2436251 C50.4601308,16.5775458 50.4246205,16.9102696 50.4139674,17.2441903 C50.4139674,17.4009774 50.3453141,17.5039064 50.1926199,17.4452608 C49.8104521,17.3091586 49.4382495,17.1459827 49.0787802,16.9569467 C48.9852698,16.9054822 48.9604126,16.6709 48.9604126,16.5224908 C48.9710657,16.2125071 49.0527394,15.9037202 49.0551067,15.5949333 C49.0681272,14.4268094 49.0633925,13.2586855 49.0551067,12.0917584 C49.0574741,11.8727351 49.0633925,11.636956 48.8290245,11.4658067 C48.410003,11.8416171 48.0193897,12.21264 47.6074703,12.5561355 L47.3304114,12.7919287 L46.7807324,13.2694618 C46.3204625,13.6644918 45.8468994,14.0418731 45.3016684,14.3238804 C45.0057493,14.477077 44.769014,14.3956913 44.5239929,14.0378337 C44.3630129,13.798464 44.4849316,13.6105589 44.6565647,13.4394096 C45.3939952,12.6961668 46.1397114,11.9613019 46.8617541,11.2025001 C47.2795919,10.7644536 47.6642868,10.2940922 48.0454306,9.82373084 C48.1294717,9.71960504 48.1401248,9.55443997 48.1851045,9.41680242 C48.0427416,9.37596781 47.8969057,9.34871999 47.7495115,9.33541674 C47.1647753,9.33541674 46.5871411,9.40363709 46.046201,9.64540045 C45.8177514,9.74713255 45.6023223,9.88477011 45.3786074,10.0044549 C44.9950962,10.2007381 44.8045243,10.1672263 44.5938299,9.79620333 C44.4446472,9.52295689 44.325567,9.23398412 44.2387269,8.93447256 C44.1582369,8.66877223 44.3204006,8.43059942 44.6388096,8.30493035 C44.8755449,8.21157618 45.1122802,8.13976528 45.3490155,8.06556069 C46.016609,7.86449018 46.68657,7.66820705 47.3612656,7.46713654 C47.8891853,7.31274311 48.4206561,7.16912131 48.9438411,7.0003657 C49.0349842,6.9704445 49.1592703,6.83879118 49.1557192,6.76099604 C49.152865,6.44854643 49.1131279,6.13755876 49.0373516,5.83463546 C48.9615963,5.57372253 48.7082895,5.60364374 48.4845746,5.62877755 C47.9625733,5.68622627 47.4405719,5.74846238 46.9162032,5.78197413 C46.8061213,5.79035207 46.6202841,5.72452542 46.5918758,5.64673028 C46.5733324,5.51918572 46.6175172,5.39051726 46.7102435,5.30203797 C47.0992561,4.94869687 47.5095982,4.62012787 47.9388997,4.31822866 C48.6005749,3.87778849 49.28474,3.46607268 49.9795581,3.07949067 C50.3906208,2.85924192 50.8185146,2.67273184 51.2591124,2.52175937 C51.6556441,2.37694072 51.732583,2.44516108 51.9764204,2.78386914 Z M8.41002179,2.08131919 C8.6266346,2.18783869 8.84916579,2.2871771 9.05512551,2.41404302 C9.30369758,2.56484591 9.53688186,2.74197945 9.79847437,2.9239004 C9.32500376,3.72219821 8.90953329,4.46424416 8.4502668,5.17876259 C8.11883737,5.69460421 7.71165264,6.1601782 7.37193747,6.67003557 C7.13976627,7.03678202 6.93101373,7.41815709 6.74695626,7.81182885 C6.7051492,7.88394115 6.69738403,7.9711662 6.72578268,8.04966841 C6.75418134,8.12817063 6.81577496,8.18974317 6.89373215,8.21756042 C7.08667143,8.30852089 7.27250864,8.41384355 7.46781527,8.50001662 C7.98744927,8.73220519 8.11055163,8.90215765 7.95904103,9.44313308 C7.61340749,10.6770837 7.61459116,11.9409555 7.57552984,13.2024336 C7.5471216,14.2065893 7.53646851,15.210745 7.51634601,16.2149008 C7.51042763,16.5344593 7.36720277,16.7032149 7.05826319,16.765451 C6.91341049,16.8052092 6.76583256,16.8340131 6.61675184,16.8516241 C6.32675109,16.8671831 6.22377123,16.7606636 6.22258755,16.4650421 C6.22258755,15.3352173 6.22258755,14.2065893 6.21430182,13.0767645 C6.20719976,12.3119785 6.18470991,11.5471924 6.16222005,10.7824063 C6.15673764,10.5926761 6.13575458,10.4037287 6.09948519,10.2174939 C6.04977078,9.9613684 5.86274989,9.86681738 5.65087179,10.0104392 C5.29576883,10.2498088 4.97854351,10.5262808 4.62462423,10.7548788 C4.23294453,11.0121105 3.82575606,11.2443523 3.4054374,11.4502477 C3.16870209,11.5627514 2.8858034,11.6381529 2.63723132,11.4251139 L2.63959868,11.3102164 C2.86449722,10.9511619 3.0822937,10.5921075 3.31666166,10.2474151 C3.56760108,9.87160477 3.83511198,9.50656604 4.09315346,9.13434622 C4.46364422,8.60055188 4.85662483,8.08111972 5.19397264,7.52697896 C5.65323914,6.77057083 6.09711784,6.00339107 6.49601683,5.21347119 C6.94107921,4.33378769 7.36483541,3.43854516 7.58144822,2.4607201 C7.68442808,1.99993351 7.97916354,1.87067389 8.41002179,2.08131919 Z M15.3013866,11.8057116 C16.0545619,11.7871912 16.7961808,11.9954889 17.4320044,12.4041358 C17.8451075,12.6650487 17.8226176,12.8026863 17.6095558,13.2239769 C17.4433677,13.5521527 17.3121216,13.8988557 17.1905059,14.2498673 L16.9526154,14.9534227 C16.8922479,15.1269657 16.9123704,15.3280362 16.8851458,15.5147445 C16.8413498,15.8247282 16.6140839,15.9276572 16.3489403,15.9587752 C15.6126935,16.0425546 14.871712,16.0916254 14.1401999,16.1981449 C13.5980761,16.2807274 13.074891,16.4375145 12.5327672,16.5571994 C12.3777055,16.591908 12.2190929,16.6086639 12.0592966,16.646963 C11.4946828,16.7857974 11.2496618,16.3585226 11.0235796,15.9946807 C10.7310277,15.50342 10.4731345,14.9918926 10.2518225,14.4639117 C10.1066431,14.0997303 9.98525282,13.7263094 9.88843379,13.3460554 C9.84252139,13.2323836 9.85167924,13.1035625 9.91319832,12.9976989 C9.9747174,12.8918353 10.0815553,12.821048 10.2021081,12.8062768 C10.8992936,12.6423086 11.6012137,12.5010805 12.2995829,12.3442934 C12.9186457,12.2066558 13.5317902,12.0438844 14.154404,11.9230028 C14.5308132,11.8559793 14.9143244,11.8487982 15.3013866,11.8057116 Z M22.0376898,8.97636225 C22.6567526,8.99311812 23.229652,9.09604708 23.6593266,9.5747864 C23.7215245,9.66566995 23.7348412,9.78191673 23.6948369,9.88477011 C23.3314482,10.4472888 22.9775289,11.0229728 22.5620585,11.5459955 C22.2726496,11.909239 21.970812,12.2626085 21.6648317,12.612537 L20.7427476,13.6584328 C20.5367879,13.8978025 20.3012363,14.1048572 20.108297,14.3490143 C19.742541,14.8133914 19.2548662,14.903155 18.7151097,14.8588716 C18.3221291,14.8265567 17.9291485,14.7918481 17.5385352,14.7391868 C17.4544942,14.7272183 17.3799226,14.6470295 17.3017999,14.5979587 C17.3574327,14.5201636 17.3964941,14.4100535 17.4722494,14.3693607 C17.8273523,14.1802587 18.2049451,14.0103062 18.5683338,13.8307789 C19.2098865,13.5076299 19.8171126,13.143788 20.2349504,12.5226238 C20.5024613,12.1252701 20.8267887,11.7626251 21.0741771,11.3568935 C21.2091656,11.108772 21.3042589,10.8405176 21.3558921,10.5621862 C21.3700962,10.5035407 21.2008305,10.3228166 21.1404629,10.3347851 C20.8180096,10.3758355 20.5026073,10.4612008 20.2029911,10.5885169 C19.8691943,10.7512883 19.5780099,11.0014296 19.2690703,11.2132717 C18.9269878,11.4526414 18.7849466,11.3880116 18.6073952,11.0086107 C18.3138434,10.3814621 18.6073952,10.145683 19.0891515,9.96615579 C19.7437246,9.72678613 20.3675222,9.3940623 21.023279,9.1511021 C21.3393206,9.04099205 21.6979746,9.03381096 22.0376898,8.97636225 Z M14.1982001,13.1796935 C13.6026764,13.2283437 13.0179485,13.3683836 12.4641139,13.5949998 C12.1468886,13.7290468 12.0178679,13.9073772 12.0971742,14.2472822 C12.2475011,14.8959739 12.2617052,14.9055487 12.8937885,14.8229662 L13.0062378,14.8229662 C13.4643206,14.7320057 13.946077,14.7032814 14.3710168,14.5297384 C14.9143244,14.3071246 14.995998,14.2508727 14.9735082,13.8654875 C14.9735082,13.4286379 14.633793,13.1390006 14.1982001,13.1796935 Z M59.647828,8.35280428 C59.9165226,8.51796935 60.1212987,8.78965391 60.358034,9.01346454 L60.3604013,9.24325942 C59.7993386,9.93743143 59.4643582,10.7500914 59.164888,11.5807041 C59.0465204,11.9230028 58.9364384,12.2736793 58.7979483,12.6111905 C58.7058846,12.8420493 58.5064131,12.9063836 58.2964396,12.9427224 L58.1161506,12.970245 C57.598884,13.0456465 57.082801,13.1246385 56.563167,13.1844809 C55.9121449,13.2574886 55.2611228,13.3209216 54.605366,13.3688303 C54.4870918,13.3703362 54.3738065,13.3206851 54.2940591,13.2323548 C53.8205885,12.5932378 53.2820156,11.9816483 52.9067902,11.2838858 C52.5729934,10.6627215 52.4049113,9.94700622 52.1965842,9.26240899 C52.12438,9.02303933 52.2652375,8.81598457 52.5102585,8.73100834 C52.720953,8.65919745 52.9375658,8.60294558 53.1529949,8.5490874 C53.9934052,8.33724525 54.8290809,8.10864723 55.6765933,7.92792314 C56.2862841,7.79270157 56.9044305,7.69992753 57.5266797,7.65025433 C58.3150083,7.59280561 59.000357,7.95305695 59.647828,8.35280428 Z M15.9251841,9.37970012 C16.0790621,9.39286545 16.2672666,9.569999 16.3477567,9.72080189 C16.4606852,9.96878846 16.5452728,10.2289892 16.5998798,10.4963596 C16.6637983,10.7357292 16.5466143,10.887729 16.3039606,10.839855 C15.3676725,10.6531467 14.4799151,10.9595399 13.5755862,11.0876026 C12.6712573,11.2156654 11.753908,11.384421 10.8424771,11.5316334 C10.6057418,11.5699325 10.5003946,11.3868147 10.4435781,11.2084843 C10.4005719,11.0256064 10.3724641,10.8394716 10.3595371,10.6519499 C10.3216594,10.3970212 10.4542312,10.3288008 10.6767624,10.2809269 C11.5313768,10.0966123 12.3824403,9.89673859 13.2311363,9.69088068 C14.1177101,9.47664484 15.0066511,9.30190498 15.9251841,9.37970012 Z M55.1202653,9.52451877 C54.8255298,9.73157352 54.5828761,10.0128329 54.6160191,10.4269424 C54.72255,11.4454603 54.9936119,11.700389 55.9180633,11.408358 C56.4211258,11.2491772 56.7892492,10.8925164 57.1538216,10.5190997 C57.5385165,10.1229429 57.5917819,9.67053426 57.4532917,9.18461385 C57.3822424,9.0358475 57.244021,8.93136274 57.082801,8.90455135 C56.358391,8.86146481 55.7026342,9.1116061 55.1202653,9.52451877 Z M36.6040132,7.03866485 C35.9979708,7.24691645 35.3907448,7.45397121 34.7989065,7.69693141 C34.6533143,7.75677383 34.4757628,7.94467901 34.4627424,8.08949766 C34.4163779,8.49991808 34.4227437,8.91468018 34.4816812,9.32344825 C34.5349466,9.64540045 34.7124981,9.94700622 34.8367842,10.2569899 C34.8600462,10.33562 34.9152079,10.4005797 34.9885592,10.4357237 C35.0619104,10.4708677 35.1465637,10.472896 35.221479,10.4413046 C35.7351946,10.3048639 36.2489103,10.1744074 36.7602585,10.0427541 C36.978055,9.98650221 37.095239,9.87160477 37.0691981,9.61906978 C37.0348715,9.23727518 37.0206674,8.85667742 36.9958102,8.47488281 L37.0372388,8.47488281 L36.9591162,7.27803451 C36.9437284,7.03866485 36.8407485,6.95608232 36.6040132,7.03866485 Z M41.3600256,6.25350583 C40.7279423,6.26071345 40.095859,6.27627248 39.4661431,6.31217793 C39.0790809,6.33491805 38.9334887,6.51683899 38.932305,6.89983045 C38.9311213,7.2828219 38.932305,7.66581336 38.932305,8.04880481 L38.932305,9.05415739 C38.932305,9.58196749 38.932305,9.61547924 39.4306328,9.52691246 C40.0224711,9.42039297 40.608391,9.25642475 41.1931272,9.10203132 C41.4405156,9.03620466 41.5908425,8.85069317 41.7103938,8.61491406 C41.9743537,8.09189135 42.0228844,7.52697896 42.0465579,6.96086971 C42.0607621,6.61139001 41.698557,6.24994182 41.3600256,6.25350583 Z M15.9263678,7.5999867 C15.9855516,7.8154194 16.0127762,8.04162372 16.0577559,8.25825327 C16.0837968,8.52155989 15.8955922,8.59935503 15.7180407,8.59217394 C14.9723245,8.56464643 14.2881595,8.84111839 13.5791372,8.99790552 C13.2429731,9.07211011 12.8973395,9.10442501 12.5540734,9.15229895 C12.0735007,9.21932245 11.592928,9.29831444 11.109988,9.34379467 C10.7371299,9.37850327 10.6187622,9.28155856 10.4861904,8.91292929 C10.4388434,8.78127597 10.4199046,8.63885103 10.3678228,8.51078826 C10.2648429,8.25945011 10.4021494,8.15173377 10.6045581,8.10266299 C10.9407222,8.02965524 11.2863558,8.00332458 11.6213362,7.92552944 C12.5067263,7.71727784 13.386198,7.48389242 14.2727717,7.27683766 C14.6000944,7.19839701 14.933591,7.14913747 15.2694273,7.12962532 C15.7428979,7.10329466 15.793796,7.15236544 15.9263678,7.5999867 Z M17.6651886,4.59470062 C17.8510259,4.65334619 18.0806591,4.73712557 18.1765369,4.88553476 C18.3587862,5.19198228 18.5068617,5.51792142 18.6180482,5.85737558 C18.7518037,6.22361116 18.6358034,6.3708235 18.2463738,6.36364241 C17.3574327,6.34688653 16.470859,6.34329599 15.5819179,6.3014063 C14.86461,6.26909139 14.1970164,6.51085475 13.506933,6.62216164 C12.6523185,6.76099604 11.7988877,6.90342099 10.9466406,7.05661757 C10.3630881,7.16313707 9.76296408,7.16433392 9.20545243,7.43601848 C9.04683977,7.51381362 8.75092064,7.52697896 8.63492034,7.42883739 C8.39110968,7.22187927 8.27324886,6.90029583 8.32479708,6.58266565 C8.37200966,6.46227954 8.46884877,6.3687341 8.58994063,6.32654011 C8.84030296,6.25241435 9.09435706,6.19168972 9.35104464,6.14461917 C10.1310875,5.96628877 10.9134977,5.79753316 11.6899895,5.60723428 C12.6854614,5.36188038 13.6726477,5.07703049 14.674038,4.85321985 C15.1913047,4.73353502 15.7298775,4.7131886 16.2601646,4.65454304 C16.5679205,4.62103128 16.8780437,4.60188171 17.188167,4.5767479 L17.1857996,4.58632268 C17.3467796,4.58632268 17.5184127,4.54922039 17.6651886,4.59470062 Z M13.6063618,1.42185578 C14.0474786,1.92931946 14.4751804,2.44795372 14.8894672,2.97775857 C15.0066511,3.12736461 15.0457125,3.33561621 15.1191004,3.5163403 C15.0717533,3.91608764 14.8622426,4.0812527 14.4799151,4.01542604 C13.8145217,3.90904526 13.170554,3.69442577 12.5730122,3.3798996 C12.3279911,3.24824628 12.1883173,3.07470328 12.2972155,2.78147545 C12.4534608,2.36138169 12.5812979,1.92692576 12.7777882,1.52598158 C12.8478796,1.36878712 12.99392,1.25988598 13.1631524,1.23861875 C13.3323848,1.21735153 13.5003467,1.28679239 13.6063618,1.42185578 Z M24.9270442,0.799494664 C25.2052082,1.13102164 25.469168,1.47332026 25.7556178,1.79766615 L25.9732389,2.02941144 L25.9732389,2.02941144 L26.4255787,2.47508228 L26.4255787,2.47508228 C26.4916096,2.52776673 26.5484263,2.59128422 26.5936608,2.66298747 C26.6895386,2.87961701 26.8789268,3.10103394 26.6930896,3.345191 C26.5324933,3.58334536 26.2643754,3.72406638 25.9793326,3.71980451 C25.9326998,3.72763921 25.8851079,3.72763921 25.8384751,3.71980451 C25.2182286,3.49719073 24.5932474,3.28295489 23.983654,3.03281359 C23.8483521,2.95483431 23.7565189,2.81776253 23.7350819,2.66179062 C23.6960206,1.96402806 23.8013678,1.30217095 24.3352059,0.782738788 C24.5541861,0.569699791 24.7281865,0.564912397 24.9270442,0.799494664 Z M54.2242222,35.3800326 C53.7980986,35.0209781 53.7507515,34.5314671 53.9945889,34.0335782 C54.4195288,33.1742412 55.0752856,32.496825 55.6742259,31.7763224 C56.0293289,31.3526381 56.4412483,30.9816151 56.801086,30.5627182 C57.1393778,30.1836928 57.2948927,29.6729736 57.2260259,29.1671931 C57.2153728,29.0798231 57.0413723,28.9577446 56.9348414,28.9493667 C56.3939012,28.9098707 55.9441042,29.1887363 55.4789193,29.4185312 C55.0729429,29.6271189 54.6551711,29.8113534 54.2277732,29.9702783 C53.8726702,30.0899631 53.4785059,29.6363576 53.6359349,29.2449882 C53.829976,28.7754731 54.0586765,28.3213841 54.3201,27.8865654 C54.5378964,27.510755 54.7935706,27.1600785 55.0504284,26.8094019 C55.5901849,26.0494032 56.1879415,25.3528375 56.9857395,24.8453738 C57.3964753,24.5844609 57.8427213,24.5928389 58.2877837,24.5629177 C58.3457839,24.5629177 58.4428453,24.6478939 58.4677025,24.7137205 C58.5864306,25.1084695 58.4578952,25.5366474 58.1421915,25.7980651 C57.8758643,26.0027262 57.6036187,26.201403 57.3266384,26.3964892 C57.2518092,26.4307194 57.171745,26.4517677 57.0899031,26.4587254 C57.0701695,26.3806063 57.06337,26.2997217 57.0697806,26.2193557 C57.1076582,26.0661591 57.1881482,25.9213405 57.2153728,25.7657502 C57.2379188,25.6578462 57.2215445,25.5453465 57.1692094,25.4485854 C57.1408011,25.4054989 56.9668007,25.4054989 56.9028822,25.4485854 C56.585931,25.6468427 56.2893322,25.8765784 56.0174921,26.1343795 C55.5662418,26.6025372 55.2403516,27.1791914 55.0705509,27.8099671 C55.0058017,28.097166 54.989395,28.3933464 55.0220201,28.68606 C55.0303059,28.7818079 55.2125921,28.9254297 55.329776,28.938595 C55.7452465,29.0008311 56.0814106,28.7578709 56.4258605,28.5795405 C56.804637,28.3796669 57.1692094,28.1486752 57.5491695,27.9476046 C57.613214,27.9041274 57.693305,27.892369 57.7669336,27.915634 C57.8405622,27.9388989 57.8997807,27.994676 57.927946,28.0672895 C58.1504772,28.4550683 58.2913347,28.8416503 58.0557831,29.2749094 C58.0474974,29.2916653 58.0309259,29.3072243 58.0297422,29.325177 C58.0214565,29.4783736 58.0143544,29.6303734 58.0072524,29.7835699 C58.1398241,29.7153496 58.2783143,29.656704 58.4026003,29.577712 C58.7079889,29.3838226 59.0062754,29.1803584 59.3081129,28.9792879 L59.3968886,29.0558862 C59.346988,29.1461429 59.2899877,29.2321945 59.2264392,29.3132086 C58.8618668,29.7129559 58.4286412,30.0648293 58.1374568,30.5100569 C57.7894559,31.0474417 57.5550879,31.6638186 57.280475,32.2502743 C56.8377799,33.190997 56.3939012,34.1365072 55.6067564,34.8366635 C55.3309597,35.0820174 54.9474485,35.2040959 54.6124681,35.3824263 L54.2242222,35.3800326 Z M56.8070044,31.2042289 L56.6886367,31.1778982 C56.3465542,31.5752518 55.9784308,31.9534559 55.6694912,32.3747465 C55.4072592,32.7514163 55.170004,33.1452445 54.9592853,33.5536421 C54.8610401,33.7319725 54.8172441,33.9857043 55.0350406,34.0754679 C55.1593266,34.1269324 55.3641027,33.9869012 55.5286337,33.924665 C55.5688787,33.9103029 55.5961033,33.8588384 55.6268789,33.8229329 C56.1832068,33.1431231 56.5276567,32.3484158 56.8200248,31.5285748 C56.8350573,31.4205498 56.8306462,31.3106665 56.8070044,31.2042289 L56.8070044,31.2042289 Z M38.6458553,20.8694438 C38.4588344,21.1507031 38.3262626,21.3721201 38.1723846,21.5767811 C37.775853,22.1057881 37.3603825,22.6204329 36.9685856,23.1518335 C36.2240531,24.1631703 35.4759695,25.1721134 34.7562942,26.201403 C34.2828235,26.8776223 33.9454757,27.6196682 33.9277206,28.4754147 C33.9099654,29.3311613 34.2200887,29.419728 34.9421314,29.333555 C35.539888,29.2629409 36.022828,28.9038864 36.4809109,28.4957612 C37.2574027,27.7991955 37.5994852,26.8668506 37.969976,25.9440806 C38.2753645,25.1852788 38.5132835,24.3965557 38.8482639,23.6533129 C39.0648767,23.1745736 39.2282241,22.6312045 39.7218172,22.3367798 C39.9188342,22.2117671 40.1249977,22.1021367 40.3385127,22.0088434 C40.5432887,21.9226703 40.8439426,22.2027328 40.7942282,22.4684331 C40.7309965,22.8378072 40.6277912,23.199032 40.4864723,23.5455966 C40.2331655,24.1440207 39.9336953,24.7161142 39.6519803,25.2989794 C39.5086378,25.5504824 39.382479,25.811606 39.2743875,26.0805213 C38.9784684,26.9985039 39.2661018,28.2408325 40.172798,28.7830048 C40.4864723,28.9709099 40.8214527,29.2186575 41.2179844,29.1193191 C41.5340417,29.0583935 41.8344992,28.9329636 42.1010071,28.7506899 C42.6230084,28.3413677 42.8727642,27.7441404 43.1118668,27.1229762 C43.4160717,26.3342531 43.448031,25.5335616 43.4243574,24.7173111 C43.4054186,24.0590445 43.1343567,23.4725888 42.8064783,22.9220386 C42.5886818,22.5534094 42.1838644,22.4588583 41.8062716,22.3403704 C41.7423531,22.3200239 41.6772509,22.3032681 41.6121487,22.2853153 L41.5979445,22.1680242 C42.0891703,21.8628279 42.5803961,21.5552379 43.0739892,21.2536321 C43.2550917,21.1435221 43.4066023,21.1890023 43.5474598,21.3481831 C44.0559778,21.8974239 44.4027866,22.5792783 44.5488501,23.3169986 C44.6376259,23.7957379 44.7145649,24.3020047 44.6541974,24.7783503 C44.5646068,25.4214508 44.4058426,26.0527386 44.1807267,26.6609927 C43.9925222,27.187606 43.689501,27.6735264 43.4361942,28.1762027 C43.1990152,28.6241265 42.8323224,28.9882191 42.3850894,29.2198544 C41.8021242,29.5394961 41.1986827,29.8193844 40.578799,30.0576482 C40.3053698,30.1629708 40.0035322,30.0947505 39.7087968,29.9499318 C38.9098151,29.5585625 38.5156508,28.8225007 38.0824252,28.1127697 C37.8894859,27.7979986 37.8977717,27.8051797 37.6160567,28.0636989 C37.0242184,28.6058712 36.4536863,29.1815552 35.734011,29.5453971 C35.0143356,29.909239 34.2780888,30.225207 33.4684541,30.3161674 C32.941718,30.3760098 32.6978807,30.1904984 32.7026154,29.6531135 C32.7026154,29.1528309 32.7026154,28.6369893 32.820983,28.1582499 C32.9275139,27.7333688 33.176086,27.3324246 33.4009845,26.95063 C33.7679242,26.3450248 34.1668232,25.7597659 34.5692733,25.1769008 C34.8213964,24.8118621 35.0948256,24.4587918 35.3741733,24.1152964 C35.9470727,23.4055653 36.531809,22.7054091 37.1058921,21.995678 C37.1446377,21.9211023 37.1695127,21.8399674 37.17928,21.7563084 C37.0954114,21.7325513 37.0081105,21.7236431 36.9212385,21.7299777 C36.0532091,21.9446125 35.187547,22.1652316 34.3242522,22.3918348 C34.0638434,22.4600552 33.8069856,22.5462283 33.5524951,22.6312045 C33.3358823,22.7066059 33.3157598,22.8059443 33.4873929,22.9459756 C33.7986998,23.2056917 34.1111904,23.4630141 34.4189463,23.7263207 C34.6722531,23.9417534 34.6616,24.0734067 34.3810687,24.2613119 C34.2484969,24.3498787 34.1100068,24.4276738 33.9786187,24.5162406 C33.5584135,24.7998936 33.179637,24.6526813 32.8588607,24.3594534 C32.4268187,23.9644935 32.0302871,23.534825 31.6219187,23.1099438 C31.5144678,22.989665 31.4218579,22.8566393 31.3461221,22.713787 C31.1153051,22.3068586 31.1235909,22.1799927 31.5071021,21.9107018 C31.9249399,21.6150803 32.3510634,21.2811596 32.9109424,21.3721201 C33.2115963,21.419994 33.5027807,21.5480568 33.8010672,21.601915 C34.3587856,21.6990202 34.9310144,21.6671032 35.4747858,21.5085608 C35.9861341,21.3685295 36.5187885,21.3062934 37.0384225,21.1901991 C37.4550767,21.096845 37.8669961,20.9711759 38.2800992,20.8694438 C38.4017508,20.8579034 38.5242037,20.8579034 38.6458553,20.8694438 Z M31.5508981,26.3593869 C31.2513805,27.0809008 30.711599,27.6736885 30.025139,28.0349746 C29.6962055,28.2270754 29.4013509,28.4734317 29.1527694,28.7638552 C28.938524,28.9948469 29.0474222,29.2533661 29.3634639,29.2868779 C29.6686411,29.3188845 29.9767834,29.3063894 30.2784458,29.2497756 C30.5826507,29.1899332 30.8702841,29.0475082 31.1697542,28.9493667 C31.2359756,28.9428858 31.3028036,28.9477412 31.3674282,28.9637288 C31.3508568,29.0319492 31.3544078,29.1193191 31.3141628,29.1659962 C30.9246265,29.6216144 30.4033093,29.9419048 29.823914,30.0815852 C29.5130631,30.1514389 29.1923485,30.1644102 28.8769728,30.1198843 C28.3892981,30.0540576 28.1667669,29.6758536 28.1135014,29.2258386 C27.9410659,28.0729207 28.2989685,26.9035155 29.0852999,26.0506001 C29.551575,25.4981836 30.2148594,25.1544622 30.9306516,25.0943183 C31.6668984,25.0344759 31.8195927,25.7525849 31.5508981,26.3593869 Z M30.2405682,25.5048373 C29.8854652,25.5479238 29.575342,25.7250573 29.4569743,26.0709465 C29.2936269,26.5592606 29.1930144,27.0667243 29.0616263,27.5777785 C29.0997104,27.6587339 29.147409,27.7346952 29.2036675,27.8039828 C29.22379,27.8231324 29.3220352,27.7908175 29.3575455,27.7549121 C29.8688937,27.2510389 30.4228544,26.7794807 30.6382835,26.0482064 C30.6714264,25.9345058 30.698651,25.7561754 30.6382835,25.6891519 C30.536253,25.575257 30.392503,25.5086384 30.2405682,25.5048373 Z M6.7599767,26.508993 C6.55028332,26.7864062 6.32584334,27.0520989 6.08764843,27.3048971 C5.78309139,27.6059684 5.56154145,27.9822152 5.44491207,28.3964228 C5.35613633,28.6836663 5.61772884,29.2078859 5.94442357,29.270122 C6.38174775,29.3698338 6.82895174,29.4184251 7.27724335,29.4149407 C7.94120702,29.3976518 8.60181068,29.3134558 9.24924846,29.1636025 C9.92276041,28.9912564 10.5986397,28.7435088 11.1289268,28.2551947 C11.5538667,27.8638253 11.8391327,27.3838891 11.6166015,26.7699059 C11.4687222,26.3092971 11.0965063,25.9582709 10.6317827,25.8411516 C9.92986247,25.6604275 9.2220239,25.498853 8.51892004,25.3205226 C7.9507553,25.175704 7.36720277,25.0655939 6.82507891,24.8537518 C5.93377048,24.5042721 5.59760634,23.9238007 5.83434165,22.9830779 C5.91247515,22.711954 6.05049136,22.4623154 6.23797535,22.2530004 C6.79991667,21.5954289 7.47582008,21.0470667 8.23247031,20.6348615 C9.02572726,20.2017829 9.87349515,19.879678 10.7525177,19.6773829 C11.5078239,19.4801331 12.3059991,19.5355606 13.027544,19.8353669 C13.5779536,20.0651617 13.8194236,20.567838 13.7259131,21.1638685 C13.6146475,21.870009 13.2595446,22.4409056 12.7908087,22.9316134 C12.4446294,23.3088474 12.0016581,23.5814826 11.5112543,23.7191396 C11.4445103,23.728668 11.3767733,23.728668 11.3100293,23.7191396 C11.3125882,23.6412739 11.3294463,23.5645683 11.3597437,23.4929353 C11.5657034,23.1985106 11.7846836,22.9148575 11.9965617,22.6252203 C12.2364105,22.2881309 12.3808658,21.8913201 12.4143995,21.4774427 C12.4795017,20.8431131 11.9338268,20.4565311 11.4366827,20.3356495 C10.4613332,20.0962798 9.62210657,20.4720902 8.84324741,21.0286246 C8.47352464,21.2693862 8.12217191,21.5378334 7.79214264,21.8317098 C7.44887645,22.1656305 7.09732452,22.5115197 7.05471216,23.0584793 C7.0120998,23.605439 7.36838644,23.881911 7.76491808,24.0662256 C8.50265375,24.3867867 9.279876,24.6049947 10.0754547,24.7149174 C10.71464,24.8190432 11.3774989,24.9291532 11.9693371,25.1816882 C13.0441154,25.6424748 13.514035,26.524552 13.0003194,27.6950696 C12.8192169,28.1055886 12.4475425,28.4742179 12.0794191,28.7470993 C11.3490906,29.2916653 10.5122313,29.6207986 9.63749436,29.8972705 C8.84768457,30.1328763 8.02962125,30.2577165 7.20622276,30.2682935 C6.47944536,30.2946242 5.75266797,30.319758 5.02589058,30.3233485 C4.59148129,30.3233485 4.1819292,30.2156322 3.89784684,29.8446092 C3.64454006,29.5178696 3.49184578,29.1983111 3.6421727,28.7291466 C3.93809184,27.802786 4.58911393,27.2654011 5.39519766,26.8512916 C5.69369097,26.7048322 6.0017767,26.5792669 6.31728168,26.4754812 C6.45415571,26.441245 6.59419801,26.4215893 6.73511949,26.4168357 L6.7599767,26.508993 Z M15.4375094,27.4078261 C15.7346122,27.1253699 15.9725312,26.8824097 16.2270216,26.6609927 C16.5821246,26.3522059 16.946697,26.0553875 17.312453,25.7609628 C17.4876372,25.6197347 17.6083722,25.6951361 17.667556,25.8914193 C17.6873112,25.9748391 17.6952815,26.0606678 17.6912295,26.146348 C17.6912295,26.8070082 17.6912295,27.4628811 17.6912295,28.1271319 C17.6868076,28.3647474 17.7094464,28.6020881 17.7586991,28.8344692 C17.8135513,29.1073237 18.0023614,29.3329871 18.2593943,29.4328934 C18.4404968,29.5011137 18.5020479,29.632767 18.3351496,29.775192 C18.0732423,30.0098257 17.7964623,30.2269171 17.506576,30.4250806 C17.3065346,30.5531434 16.9632685,30.2694903 16.9680032,29.988231 C16.9786562,29.3012401 17.0046971,28.6142491 17.0212686,27.9272582 C17.0363179,27.6393209 16.9239822,27.3595227 16.7146964,27.163669 C16.5501653,27.0032913 16.470859,27.0260315 16.353675,27.2175272 C15.9370209,27.8997307 15.5251015,28.5891153 15.0634676,29.239004 C14.8564753,29.4943906 14.597223,29.7014055 14.3035473,29.845806 C14.0798324,29.9654909 13.9744852,29.845806 14.0313017,29.5896805 C14.1579551,29.0307524 14.2881595,28.473021 14.4112618,27.9140929 C14.5296295,27.3994481 14.6278746,26.8836065 14.7415076,26.3701586 C14.9604877,25.3767745 15.1924884,24.386981 15.4008154,23.3924 C15.4694687,23.0668573 15.50853,22.7233618 15.1794679,22.4540709 C15.4024552,22.1342163 15.7142994,21.8884627 16.075511,21.7479304 C16.1275928,21.7287809 16.3122464,21.8831743 16.3122464,21.9657568 C16.3359199,22.3128428 16.3737975,22.6766847 16.2992259,23.0106054 C16.1027356,23.8902889 15.8387757,24.7556102 15.625714,25.6329 C15.5073463,26.1116393 15.4410604,26.5903787 15.3641214,27.0786928 C15.351101,27.1684564 15.4031828,27.2594169 15.4375094,27.4078261 Z M49.68719,27.6364241 C49.9440478,27.3635427 50.1926199,27.0798896 50.4613144,26.8189767 C50.806903,26.4552031 51.2527475,26.2049872 51.7408688,26.1008677 C52.1823801,26.019482 52.5161769,26.3294657 52.3185029,26.7172446 C52.0367879,27.2677948 52.1539719,27.8351009 52.1042575,28.3928322 C52.084135,28.6202334 52.1231963,28.8536188 52.1042575,29.08102 C52.0610867,29.326896 52.2120794,29.5650241 52.4510747,29.6279797 C52.6392793,29.6950032 52.6262588,29.8027195 52.5067075,29.8888926 C52.2823284,30.0572747 52.0425271,30.2035581 51.7905832,30.3257422 C51.6688214,30.3832878 51.5264521,30.3741321 51.4128817,30.3014522 C51.2993114,30.2287724 51.2301959,30.1025876 51.2295205,29.9666877 C51.2389899,29.3084212 51.2780513,28.6501546 51.3029085,27.9930849 C51.3171126,27.6220619 51.3325004,27.2498421 51.3313167,26.8776223 C51.3264679,26.7960911 51.2821874,26.7222153 51.212949,26.6801423 C51.1260972,26.669223 51.0390333,26.6987139 50.9762137,26.7603311 C50.7016008,27.084677 50.4411919,27.4209914 50.1772321,27.7537152 C49.6777206,28.3832574 49.1864948,29.017587 48.6751466,29.6363576 C48.535395,29.791209 48.3714449,29.921807 48.1898392,30.0229396 C48.0794777,30.0636534 47.9628664,30.0843178 47.8453893,30.0839789 C47.8394709,29.9367665 47.7838381,29.7656172 47.8382872,29.6471292 C48.0264918,29.2354134 48.2821659,28.8548157 48.4585337,28.4395093 C48.6273868,28.0090325 48.7728021,27.5695303 48.8941267,27.1229762 C48.9414738,26.9625985 48.7059221,26.7639217 48.4727379,26.7507563 L48.0549,26.7208351 L48.0229408,26.6119219 C48.4324929,26.2684265 48.8396776,25.9225373 49.2539644,25.5838292 C49.3033728,25.5579224 49.3611165,25.5535975 49.4137607,25.5718608 C49.650496,25.6376874 49.9547009,26.193025 49.8872313,26.430001 C49.8256801,26.6466305 49.7404554,26.8572758 49.6848226,27.0751022 C49.6422103,27.2450547 49.6315572,27.4221882 49.6055163,27.5957312 L49.68719,27.6364241 Z M22.3821396,30.0660261 C22.3703029,29.9212075 22.3276905,29.8027195 22.3584661,29.7069716 C22.5514054,29.1193191 22.7715692,28.5400445 22.9621411,27.9511952 C23.0722231,27.613684 23.1479784,27.2642043 23.2308357,26.9171183 C23.2817338,26.7040793 23.2308357,26.4862529 23.0355291,26.4012766 C22.9301819,26.3569933 22.7609161,26.4635127 22.622426,26.5065993 C22.5407523,26.5317331 22.461446,26.564048 22.3856907,26.5927724 L22.3229558,26.5269457 C22.4164663,26.3617806 22.4732827,26.1415606 22.6129566,26.0482064 C22.9181169,25.8354078 23.2470964,25.6598476 23.5930407,25.5251837 C23.8096535,25.4402075 24.0416541,25.5060341 24.0665113,25.8411516 C24.0901849,26.2456864 24.1351646,26.6490242 24.1765933,27.0523621 C24.1894187,27.1408736 24.2080033,27.2284336 24.2322261,27.3144719 C24.7672479,26.9554174 25.2561063,26.6107251 25.7710056,26.3019382 C25.9616794,26.2076858 26.1697037,26.1546933 26.3817827,26.146348 C26.5735383,26.1271984 26.6327221,26.2660328 26.618518,26.4503474 C26.5392116,27.2402673 26.461089,28.0301872 26.3900684,28.8213039 C26.3675785,29.0606736 26.4030888,29.3072243 26.6043138,29.4735862 C26.7274282,29.5608921 26.8577146,29.6373711 26.9937434,29.7021842 L27.1488051,29.7859636 C26.8848452,30.1940889 26.4385991,30.2826557 26.0763941,30.4861199 C25.4845558,30.0636324 25.3732902,29.5848931 25.5401886,28.8799495 C25.6727604,28.323415 25.6810461,27.7357625 25.7165564,27.1600785 C25.699377,27.0315685 25.6293035,26.9163777 25.5236172,26.8429137 C25.4869232,26.8141893 25.3176574,26.9075435 25.2513716,26.9841418 C24.7779009,27.526314 24.2961446,28.0613052 23.8688374,28.6333987 C23.4048362,29.2318229 22.9727942,29.711759 22.3821396,30.0660261 Z M20.822054,26.2516706 C20.7297272,26.6011503 20.6255637,26.9482363 20.547441,27.3013066 C20.4231603,27.8015116 20.3255635,28.3081105 20.2550729,28.8189102 C20.2065422,29.2521693 20.4184203,29.4340902 20.8670337,29.4711925 C20.9634348,29.4885606 21.0581102,29.5145957 21.1499324,29.5489877 C21.1024061,29.6452864 21.0482169,29.7380732 20.9877687,29.8266565 C20.735492,30.1853373 20.3097584,30.3762499 19.8774801,30.3245454 C19.5966,30.3196028 19.3662065,30.0980853 19.347193,29.814688 C19.1944987,28.5340603 19.6561326,27.4676685 20.4681347,26.5233552 C20.5580941,26.4180325 20.6527882,26.3174973 20.745115,26.2145683 L20.822054,26.2516706 Z M46.5551819,26.2002061 C46.5030072,26.3228499 46.4575639,26.4483106 46.4190591,26.5760165 C46.287671,27.1050234 46.1550992,27.6328335 46.0402826,28.165431 C45.9821804,28.3877801 45.9594063,28.618055 45.972813,28.8476346 C46.0142417,29.2270355 46.2971404,29.4269091 46.6250188,29.5549719 C46.8439989,29.641145 46.8250601,29.7428771 46.6735495,29.8793178 C46.3728957,30.1521992 46.049752,30.3807972 45.6188937,30.3125769 C45.4908739,30.2985626 45.3726599,30.2366634 45.2874643,30.1390339 C44.970239,29.6291765 44.9323613,29.08102 45.0992597,28.5041391 C45.2570327,27.9021162 45.5221834,27.334277 45.8816699,26.8285515 C46.0592214,26.5891818 46.2734669,26.3713554 46.4735082,26.1439543 L46.5551819,26.2002061 Z M20.7960131,25.2403338 C20.5995228,25.096712 20.4409101,25.0009641 20.3036036,24.8717045 C20.2698544,24.8111526 20.2698544,24.7371701 20.3036036,24.6766182 C20.5007496,24.4808466 20.7168722,24.3056236 20.9487074,24.1535955 C21.1129367,24.0601365 21.3207664,24.1126721 21.422178,24.2732804 C21.5524606,24.4370771 21.5364921,24.6745821 21.385484,24.8190432 C21.1989478,24.9731974 21.0019769,25.1139711 20.7960131,25.2403338 L20.7960131,25.2403338 Z M47.2784082,24.5018784 C47.1339997,24.6419096 46.9481625,24.8369959 46.7445701,25.0129326 C46.5895085,25.1457828 46.411957,25.1888693 46.2628138,24.9913893 C46.1136705,24.7939094 46.0521193,24.607201 46.2841199,24.433658 C46.4459107,24.3040711 46.6150717,24.1841809 46.7907335,24.0746035 C47.0061626,23.952525 47.2961634,24.1535955 47.2784082,24.5018784 Z M3.55271368e-15,0 L1.01441079,0 L1.01441079,36 L3.55271368e-15,36 L3.55271368e-15,0 Z M61.9855892,0 L63,0 L63,36 L61.9855892,36 L61.9855892,0 Z" id="形状结合"></path>
            </g>
        </g>
    </g>
</svg>